<svg width="230" height="192" viewBox="0 0 230 192" fill="none" xmlns="http://www.w3.org/2000/svg">
<g id="Group">
<path id="EPOMAKER" fill-rule="evenodd" clip-rule="evenodd" d="M72.8968 111.734V72.7673C74.5301 72.6118 76.0274 72.3979 77.3885 72.1257C78.7496 71.8534 79.9746 71.5229 81.0636 71.134H80.9469C84.2914 69.8895 87.1692 67.9839 89.5803 65.4172C89.9692 65.0284 90.2026 64.7561 90.2803 64.6006C94.7137 59.9338 96.9304 54.2949 96.9304 47.6837V24.2334H63.33V111.734H72.8968ZM53.6466 111.735V102.168H35.6797V66.9341H53.6466V57.3673H35.6797V33.8003H53.6466V24.2335H26.1129V111.735H53.6466ZM87.3637 33.8015H72.8969V63.2018C75.1525 62.8907 77.1553 62.3074 78.9053 61.4518C80.6553 60.5962 82.0748 59.5462 83.1637 58.3018C84.4081 56.9017 85.4193 55.2878 86.1971 53.46C86.9748 51.6322 87.3637 49.7072 87.3637 47.685V33.8015ZM140.098 111.734V24.2334H106.497V111.734H140.098ZM116.064 102.169H130.531V33.8015H116.064V102.169Z" fill="black"/>
<path id="Path 6" d="M228.477 0V192H192.891V23.9413H202.974L202.973 181.918H218.395V10.0824H10.0824V181.918H157.012L157.012 23.8979H167.094V192H0V0H228.477Z" fill="black"/>
<path id="Path" fill-rule="evenodd" clip-rule="evenodd" d="M166.971 42.317L175.371 57.1338H184.938L193.338 42.317L202.905 24.2334H192.871C190.849 27.7334 188.71 31.4474 186.455 35.3752C184.199 39.303 182.099 42.9392 180.154 46.2837L167.438 24.2334H157.404L166.971 42.317Z" fill="black"/>
<path id="MAKER" fill-rule="evenodd" clip-rule="evenodd" d="M28.7916 166.403V129.562L33.2497 137.426V166.403H38.3269V137.426L42.785 129.562V166.403H47.8622V119.965H42.5373C41.4641 121.822 40.3289 123.793 39.1318 125.878C37.9348 127.963 36.8202 129.892 35.7883 131.667L29.0393 119.965H23.7144V166.403H28.7916ZM57.8928 166.403V145.784H65.5706V166.403H70.6478V119.965H52.8155V166.403H57.8928ZM57.8928 140.707H65.5706V125.042H57.8928V140.707ZM80.8023 166.403V150.552L85.0746 142.317L91.6998 166.403H96.9009C95.58 161.45 94.1765 156.331 92.6905 151.047C91.2045 145.764 89.801 140.645 88.4801 135.692L96.6532 119.965H90.9568L80.8023 139.531V119.965H75.7251V166.403H80.8023ZM116.777 161.326V166.403H102.164V119.965H116.777V125.042H107.241V137.549H116.777V142.627H107.241V161.326H116.777ZM126.993 166.403V145.723C127.777 145.64 128.562 145.506 129.346 145.32C130.13 145.134 130.914 144.938 131.699 144.732C132.607 145.888 133.329 147.126 133.866 148.447C134.402 149.768 134.671 151.027 134.671 152.224V166.403H139.748V152.224C139.748 150.49 139.407 148.736 138.726 146.961C138.045 145.186 137.106 143.432 135.909 141.698C137.147 140.377 138.097 138.932 138.757 137.364C139.418 135.795 139.748 134.144 139.748 132.41V119.965H121.916V166.403H126.993ZM126.993 125.042V140.645C128.19 140.48 129.253 140.171 130.182 139.717C131.11 139.263 131.864 138.705 132.442 138.045C133.102 137.302 133.639 136.445 134.052 135.475C134.464 134.505 134.671 133.484 134.671 132.41V125.042H126.993Z" fill="black"/>
</g>
</svg>
